<?xml version="1.0" encoding="UTF-8" standalone="no"?>
<svg width="193px" height="189px" viewBox="0 0 193 189" version="1.1" xmlns="http://www.w3.org/2000/svg" xmlns:xlink="http://www.w3.org/1999/xlink" xmlns:sketch="http://www.bohemiancoding.com/sketch/ns">
    <style type="text/css" media="screen">
        <![CDATA[
        #Background-Circle {
            fill: #B9C818;
        }
        #Black-Circle-with-Hole {
            fill: #231F20;
        }
        #Funtime-Comics-Text #F{
            fill: #dce73a;
        }
        #Funtime-Comics-Text #U{
            fill: #dce73a;
        }
        #Funtime-Comics-Text #N{
            fill: #dce73a;
        }
        #Funtime-Comics-Text #T{
            fill: #dce73a;
        }
        #Funtime-Comics-Text #I1{
            fill: #dce73a;
        }
        #Funtime-Comics-Text #M1{
            fill: #dce73a;
        }
        #Funtime-Comics-Text #E{
            fill: #dce73a;
        }
        #Funtime-Comics-Text #C1{
            fill: #dce73a;
        }
        #Funtime-Comics-Text #O{
            fill: #dce73a;
        }
        #Funtime-Comics-Text #M2{
            fill: #dce73a;
        }
        #Funtime-Comics-Text #I2{
            fill: #dce73a;
        }
        #Funtime-Comics-Text #C2{
            fill: #dce73a;
        }
        #Funtime-Comics-Text #S{
            fill: #dce73a;
        }
        ]]>
    </style>
    <title>logo.svg</title>
    <description>Created with Sketch (http://www.bohemiancoding.com/sketch)</description>
    <defs></defs>
    <g id="Page-1" stroke="none" stroke-width="1" fill="none" fill-rule="evenodd" sketch:type="MSPage">
        <g id="Funtime-Comics-Logo" sketch:type="MSLayerGroup" transform="translate(98.000000, 94.500000) scale(1, -1) translate(-98.000000, -94.500000) translate(1.000000, 0.000000)">
            <g id="Background" transform="translate(0.660959, 0.000000)" sketch:type="MSShapeGroup">
                <path d="M156.641303,94.5199252 C156.641303,60.3575745 128.844963,32.6631048 94.5569521,32.6631048 C60.2689408,32.6631048 32.4730967,60.3575745 32.4730967,94.5199252 C32.4730967,128.682769 60.2689408,156.376746 94.5569521,156.376746 C128.844963,156.376746 156.641303,128.682769 156.641303,94.5199252" id="Background-Circle"></path>
                <path d="M94.557992,46.2723453 C67.8124024,46.2723453 46.1319014,67.872897 46.1319014,94.5194812 C46.1319014,121.166065 67.8124024,142.767604 94.557992,142.767604 C121.302096,142.767604 142.982597,121.166065 142.982597,94.5194812 C142.982597,67.872897 121.302096,46.2723453 94.557992,46.2723453 M94.5565065,188.917489 C42.230461,188.917489 -0.187738131,146.654253 -0.187738131,94.5199745 C-0.187738131,42.3852031 42.230461,0.121967176 94.5565065,0.121967176 C146.883542,0.121967176 189.302237,42.3852031 189.302237,94.5199745 C189.302237,146.654253 146.883542,188.917489 94.5565065,188.917489" id="Black-Circle-with-Hole"></path>
            </g>
            <g id="Funtime-Comics-Text" transform="translate(-0.246260, 6.799623)" sketch:type="MSShapeGroup">
                <g id="Left-Star" transform="translate(-0.028814, 61.197470)">
                    <path d="M15.6343773,0.0257346281 C13.1664525,0.63058757 13.2001241,3.07713385 13.8705836,4.69533748 C14.7673355,5.58732289 16.0186288,4.2523049 16.279088,6.03035547 C16.0532907,6.06242353 15.8606697,6.28443318 15.5066236,6.31600788 C16.1810444,9.39750174 19.0010346,16.0385502 16.6257066,18.3888923 C15.8606697,21.1867072 6.15188156,23.2824782 3.71713318,23.4063103 C3.65276114,23.5355692 3.58838911,23.6638415 3.52451225,23.7891536 C2.81542954,23.8848644 2.91743445,23.9490005 2.59408878,23.6317734 C2.68767581,23.346121 2.43563454,22.901115 2.30738564,22.3939463 C-3.04539654,22.3939463 1.76022336,28.3349244 2.36779632,26.5208589 C2.49604522,26.5208589 2.62429411,26.4892842 2.75501886,26.4591896 C3.04617852,25.8883781 2.7218425,25.2539239 3.20364242,24.6174962 C3.36259182,24.6174962 3.52451225,24.6174962 3.71713318,24.5854282 C4.00334114,25.1562396 3.96917445,25.6007523 4.00334114,26.1098944 C6.82234105,25.7270511 9.679469,27.189848 12.4950027,27.4128443 C12.4950027,27.4769805 12.5247129,27.5090485 12.5588796,27.5406232 C20.5722074,28.9057359 17.047591,37.388971 15.8908751,42.7912057 C15.4120462,43.012722 15.6041719,43.6156015 15.6041719,43.710819 C15.8908751,43.9007606 15.9587133,44.0601142 15.9889186,44.4094093 C15.4769134,44.7266365 15.3144978,44.6328991 14.9297511,44.6328991 C14.8960796,44.600831 14.8658742,44.5692563 14.8356689,44.5056135 C12.4950027,44.5056135 12.4311259,47.4287405 13.5200036,48.5082007 C15.1862489,49.4603754 17.3377603,49.33457 17.8170844,46.8899971 C17.7522172,46.8899971 17.7190408,46.8559556 17.6888355,46.825861 C17.5229537,45.4568015 15.5066236,44.4434508 17.8472897,44.1242503 C18.073087,43.012722 21.4991647,37.4851752 22.5583323,37.1334133 C22.9727891,35.8965729 25.4114989,33.9867966 27.0435775,33.4495332 C29.4451495,33.4495332 36.7231507,37.4851752 38.5126932,39.6440957 C41.1138185,39.3584433 38.0378257,41.6772107 39.8318247,43.2663064 C42.8434456,44.8524419 43.7401975,43.7552209 45.0553677,40.7684512 C45.0553677,38.7965122 40.9177314,38.5004993 40.3750257,38.4348831 C40.1185279,36.6247645 37.1712791,34.5610615 36.3988147,32.5279465 C32.7494155,28.0778866 34.5746103,22.615956 37.7823182,18.2630869 C38.0046493,17.3099255 40.8236492,14.2284316 41.9432274,13.3063515 C41.9432274,12.8613455 41.9432274,12.3842715 41.9764038,11.9091709 C42.2026962,11.8455281 42.4552327,11.7818853 42.7156918,11.7177492 C45.1841117,14.1662689 45.5683633,10.3827312 46.5225549,9.90615051 C46.5225549,5.26812236 39.8625252,7.90658364 41.9764038,10.0018613 C41.9764038,11.1770324 41.3321883,11.6541064 40.729567,10.7320264 C36.1759884,11.620065 27.3981188,18.359291 23.4243837,12.4484076 C20.8623768,11.4306167 19.6105883,5.36383318 17.1080017,4.53795731 C17.1080017,3.74365614 19.1961314,-0.547050254 15.6343773,0.0257346281" id="path106" fill="#DCE91D"></path>
                    <path d="M15.6343773,0.0257346281 C13.1664525,0.63058757 13.2001241,3.07713385 13.8705836,4.69533748 C14.7673355,5.58732289 16.0186288,4.2523049 16.279088,6.03035547 C16.0532907,6.06242353 15.8606697,6.28443318 15.5066236,6.31600788 C16.1810444,9.39750174 19.0010346,16.0385502 16.6257066,18.3888923 C15.8606697,21.1867072 6.15188156,23.2824782 3.71713318,23.4063103 C3.65276114,23.5355692 3.58838911,23.6638415 3.52451225,23.7891536 C2.81542954,23.8848644 2.91743445,23.9490005 2.59408878,23.6317734 C2.68767581,23.346121 2.43563454,22.901115 2.30738564,22.3939463 C-3.04539654,22.3939463 1.76022336,28.3349244 2.36779632,26.5208589 C2.49604522,26.5208589 2.62429411,26.4892842 2.75501886,26.4591896 C3.04617852,25.8883781 2.7218425,25.2539239 3.20364242,24.6174962 C3.36259182,24.6174962 3.52451225,24.6174962 3.71713318,24.5854282 C4.00334114,25.1562396 3.96917445,25.6007523 4.00334114,26.1098944 C6.82234105,25.7270511 9.679469,27.189848 12.4950027,27.4128443 C12.4950027,27.4769805 12.5247129,27.5090485 12.5588796,27.5406232 C20.5722074,28.9057359 17.047591,37.388971 15.8908751,42.7912057 C15.4120462,43.012722 15.6041719,43.6156015 15.6041719,43.710819 C15.8908751,43.9007606 15.9587133,44.0601142 15.9889186,44.4094093 C15.4769134,44.7266365 15.3144978,44.6328991 14.9297511,44.6328991 C14.8960796,44.600831 14.8658742,44.5692563 14.8356689,44.5056135 C12.4950027,44.5056135 12.4311259,47.4287405 13.5200036,48.5082007 C15.1862489,49.4603754 17.3377603,49.33457 17.8170844,46.8899971 C17.7522172,46.8899971 17.7190408,46.8559556 17.6888355,46.825861 C17.5229537,45.4568015 15.5066236,44.4434508 17.8472897,44.1242503 C18.073087,43.012722 21.4991647,37.4851752 22.5583323,37.1334133 C22.9727891,35.8965729 25.4114989,33.9867966 27.0435775,33.4495332 C29.4451495,33.4495332 36.7231507,37.4851752 38.5126932,39.6440957 C41.1138185,39.3584433 38.0378257,41.6772107 39.8318247,43.2663064 C42.8434456,44.8524419 43.7401975,43.7552209 45.0553677,40.7684512 C45.0553677,38.7965122 40.9177314,38.5004993 40.3750257,38.4348831 C40.1185279,36.6247645 37.1712791,34.5610615 36.3988147,32.5279465 C32.7494155,28.0778866 34.5746103,22.615956 37.7823182,18.2630869 C38.0046493,17.3099255 40.8236492,14.2284316 41.9432274,13.3063515 C41.9432274,12.8613455 41.9432274,12.3842715 41.9764038,11.9091709 C42.2026962,11.8455281 42.4552327,11.7818853 42.7156918,11.7177492 C45.1841117,14.1662689 45.5683633,10.3827312 46.5225549,9.90615051 C46.5225549,5.26812236 39.8625252,7.90658364 41.9764038,10.0018613 C41.9764038,11.1770324 41.3321883,11.6541064 40.729567,10.7320264 C36.1759884,11.620065 27.3981188,18.359291 23.4243837,12.4484076 C20.8623768,11.4306167 19.6105883,5.36383318 17.1080017,4.53795731 C17.1080017,3.74365614 19.1961314,-0.547050254 15.6343773,0.0257346281 L15.6343773,0.0257346281 Z" id="path110" stroke="#231F20" stroke-width="1.49124995"></path>
                    <path d="M23.4468644,17 C16.8066415,17.4524063 16.7799024,25.4112054 20.2970913,29.2080637 C20.5501229,29.2929207 20.7204612,29.407379 20.9175386,29.6017608 C21.0943141,29.5716661 21.2908964,29.5469984 21.4879739,29.5173971 C21.4879739,28.8158466 21.0943141,28.7309896 20.4704006,28.3353191 C17.7672703,24.7663907 17.8846255,19.7859744 22.735801,18.1534634 C28.8927384,17.2525976 30.7080298,19.8974725 30.5109523,25.6924176 C29.4864466,28.6727737 25.5156825,30.3901417 22.9398108,28.9821072 C22.6229024,28.9821072 22.6229024,28.9821072 22.2554866,29.1232066 C22.1955711,29.3210419 22.1688319,29.5173971 22.1420928,29.6866178 C22.3688804,29.9397088 22.595668,30.1636918 22.84969,30.3901417 C22.9625886,30.1370507 25.0046676,30.4182629 25.572627,30.4182629 C32.3529828,28.6476126 32.522826,24.4822184 29.8835726,18.6038963 C29.7167005,18.5777485 29.5731013,18.5476539 29.4295022,18.4909181 C28.6654556,16.9718788 24.5778315,16.8885018 23.4468644,17" id="path114" fill="#231F20"></path>
                </g>
                <g id="Right-Star" transform="translate(141.770293, 61.191433)">
                    <path d="M26.5950581,0.569676747 C23.1803693,0.84644877 23.5205508,3.77648272 26.3167729,4.39218947 C26.8173892,4.67044155 26.8173892,4.67044155 26.9421719,4.85446288 C26.4410604,5.34584423 26.346483,5.2239856 26.0394779,5.3167363 C24.9169287,10.5245892 24.4232447,15.637718 19.5433494,18.132613 C18.764943,19.67336 7.98906454,20.2905468 6.12079006,20.2905468 C4.34808329,18.7502932 2.54269533,17.2697355 0.894276098,20.3216281 C-0.37830949,25.4658383 4.65558354,22.3557298 6.61447404,22.5106432 C11.838017,25.6829143 18.4505103,24.7282729 16.4039748,33.6930223 C15.4428509,36.4375549 14.4188404,39.2398099 13.7310499,41.7366784 C8.54464471,42.4426691 13.2348901,49.162161 15.9390107,44.4787442 C16.0632982,42.6592518 15.0694931,42.9981865 14.6307729,41.889125 C14.9075727,41.306473 16.8709197,41.7051037 17.5215724,39.7311913 L17.7414276,39.7311913 C19.2695207,36.6812721 24.1088121,32.4310208 27.6215445,35.450352 C30.4806531,37.0216869 32.7831912,41.3646889 34.523712,44.0450853 C34.7098957,44.0450853 36.5118175,43.8615574 35.733411,44.6316842 C33.8393877,45.2799523 34.4900405,46.6347045 34.6138328,47.9583753 C35.981491,48.1443701 37.3194389,49.4700143 38.6861067,47.1882486 C39.4605518,44.6006028 37.4734366,44.5714949 36.2305612,43.6464547 C36.2305612,43.2458506 36.0760683,43.3677093 36.5118175,42.6903332 C34.8629031,41.0568355 32.7539762,33.232229 33.4665251,30.8902739 C33.9022743,29.9326723 34.9871906,28.7017522 35.3600532,27.5926906 C35.484836,27.5635827 35.6086283,27.50142 35.733411,27.4397507 C38.0983405,24.4495274 45.368419,24.0489234 46.7024056,21.6166844 L47.0465484,21.6166844 C47.1084446,21.7405164 47.1703407,21.8312937 47.2619471,21.922071 C46.2057506,22.9709432 48.4102451,26.2379385 50.4973845,24.0489234 C50.6503919,23.6177313 51.2426146,22.3557298 50.6835683,21.5525483 C50.6835683,18.0418357 39.7685472,22.1391471 38.6207443,20.9975241 C31.0396994,20.2905468 28.7440937,14.8966991 27.8077282,8.05929543 C27.5304333,7.87330069 27.7171122,5.56292032 27.4685371,4.69954948 C27.9359771,4.23678271 28.5836588,4.33002677 29.1169563,3.25155325 C29.1169563,1.64913697 28.1231512,0.724096789 26.5950581,0.569676747" id="path118" fill="#DCE91D"></path>
                    <path d="M26.7391524,0.98670953 C24.345008,1.33452464 24.1637759,3.29758325 26.4608672,3.97495934 C26.8629448,4.09336448 27.1476673,4.33658838 27.4106023,4.63605473 C27.5532111,4.79836844 27.4749743,5.03813886 27.3259283,5.15999749 C27.0352638,5.39779448 26.8173892,5.60648355 26.4425459,5.68196683 C26.3984758,5.69084721 26.0270987,8.03033551 25.9825335,8.24790496 C25.5730283,10.243525 25.0709264,12.1962231 24.1964571,14.0438367 C23.1843307,16.183023 21.2313822,17.9694606 19.1269119,19.0262265 C17.0070913,20.0908861 14.1806638,20.1357814 11.8647561,20.3661781 C10.0786798,20.5442791 6.73133404,21.4485984 5.25325311,20.18117 C3.62166965,18.7820159 1.52710271,18.960117 1.23891406,21.5285219 C1.09481974,22.812231 2.21439796,22.9252092 3.16512338,22.7545085 C4.23221363,22.5621001 5.24483523,22.1851771 6.32925641,22.0761457 C7.26364124,21.9824083 8.41144412,22.9528371 9.25125157,23.3134794 C10.6005884,23.8936646 12.0029084,24.3396573 13.3458081,24.9376033 C20.5802343,28.1577299 15.7835275,36.4855583 14.2544441,41.8517781 C14.2088885,42.0111317 14.0296371,42.1236165 13.8751443,42.1537112 C12.0445027,42.5069532 11.2844175,43.9727102 12.7218945,45.3131551 C13.9137675,46.42419 16.3911004,44.5020799 14.9858094,43.1068726 C14.648599,42.7723781 14.3980432,42.5390213 14.1623426,42.1073358 C14.0900478,41.9746234 14.0425116,41.7999758 14.1623426,41.6707169 C15.0833578,40.6780871 16.2598805,41.2405115 16.9981782,39.6163876 C17.0932508,39.4086853 17.2937944,39.2991605 17.5215724,39.2991605 C17.391838,39.2991605 18.8946774,37.206843 19.0526364,37.0455159 C20.0028667,36.0731137 21.02044,35.282266 22.2227115,34.645345 C23.7646693,33.8278562 26.0023402,33.6522219 27.4690323,34.7450027 C29.878527,36.5398273 31.5546757,38.4170422 33.1956674,40.9622594 C33.5962595,41.5833931 34.4217071,43.6105878 35.0931569,43.5938137 C35.6115993,43.5804932 36.104293,43.6574565 36.3954526,44.1024625 C36.4910204,44.2484955 36.487059,44.3925551 36.3954526,44.5390815 C35.8859232,45.3570637 34.8866712,45.8997539 35.0129394,46.9713205 C35.3090508,49.49335 39.5501775,45.9915179 37.1817818,44.703862 C36.8198129,44.5070134 35.8616599,44.2075471 35.7071671,43.7615544 C35.6472515,43.5874001 35.876515,42.7205758 35.8438338,42.6840676 C33.6165615,40.1763453 32.7950753,35.1826084 32.7836864,31.9501479 C32.7826961,31.5658246 32.8079497,31.022641 32.9980948,30.6723591 C33.4739527,29.7971477 34.2711755,27.8493831 34.9767921,27.287452 C36.4419986,26.119188 37.8502606,25.2365763 39.6180157,24.5513065 C41.5922564,23.7856199 43.7927896,23.3470275 45.5620302,22.1368283 C46.3250864,21.6143656 46.8836376,20.503824 47.7308726,21.7041562 C47.8289162,21.8432822 47.8214886,22.0006624 47.7308726,22.1402818 C47.3911863,23.871957 48.1834575,24.3534713 50.1057055,23.5858112 C50.3716115,22.8852475 50.2116717,22.3356503 50.1413577,21.5526963 C50.0527223,20.5728937 48.9816707,20.5585864 48.2166339,20.5309585 C46.5845552,20.4722493 44.9183099,20.8442388 43.3189124,21.1249577 C40.7489828,21.5758839 38.9386431,21.6178191 36.4207063,21.0805558 C33.1392181,20.3804853 30.7183344,18.1816032 29.2105434,15.2772237 C27.4700226,11.9238913 27.634914,8.37025694 26.9451429,4.81464915 C26.9144424,4.65430885 26.9401912,4.49643533 27.0847807,4.39381754 C28.6029704,3.31534402 28.444021,1.34981864 26.4509638,0.98670953 C25.7522796,0.859424001 26.1177147,0.0394683812 26.7391524,0.152939977 C28.0444192,0.390736974 29.4615943,1.11004822 29.5997466,2.60688658 C29.6616428,3.27982248 29.7136356,3.67943984 29.0832848,4.17328796 C28.1662309,4.8925992 28.099383,4.90937327 28.1538517,6.09293135 C28.3519195,10.3584766 29.4254469,15.3507335 32.7549666,18.3138222 C35.806201,21.0287535 39.8170738,20.8550926 43.5026203,20.2083045 C45.3094938,19.8910774 49.2842193,18.7598149 50.776165,20.4283408 C52.5067823,22.3637715 50.9677956,25.5922851 48.3518151,25.1201446 C47.2054978,24.9139223 46.5444465,23.625773 46.4478885,22.5961416 C46.3795551,21.8723901 47.1881668,21.8975512 46.7202317,22.4032399 C46.2656661,22.8946212 45.6214506,23.2103683 45.0321989,23.5053944 C43.1396611,24.4531289 41.0119178,24.9282296 39.0594645,25.7432516 C36.8797284,26.6525045 35.9067204,27.9830823 34.6821662,29.8533902 C33.3169839,31.9392941 34.000813,34.3725198 34.5509463,36.6463919 C35.0183863,38.5788626 35.6289303,40.9509123 36.980743,42.4724184 C37.0956223,42.6021707 37.0574943,42.7758315 36.980743,42.9090373 C36.5563827,43.6401891 38.687097,44.3738076 38.9827132,44.8720959 C39.4793682,45.7083323 39.4120252,46.3714011 39.2095009,47.3033482 C38.6950198,49.6670109 35.8824571,48.6788213 34.4697385,48.3754081 C34.2488929,48.3280461 34.1003421,48.1795463 34.0716222,47.9585233 C33.9720932,47.2036906 33.6160663,46.1212702 34.0458734,45.401959 C34.4256684,44.7660247 35.499691,44.4305434 34.523712,44.4774121 C34.360306,44.4853058 34.1463928,44.406369 34.0547865,44.2632962 C32.1642294,41.3046476 30.4355927,37.7248655 27.3477157,35.8234762 C23.6260219,33.5318433 20.0033619,36.6557657 18.209858,39.9498954 C18.1276598,40.0998753 17.8979012,40.1640114 17.7414276,40.1640114 C18.0895318,40.1640114 16.933311,41.3515163 16.8184317,41.4117056 C16.1747114,41.7506403 14.9105437,41.7600141 15.7523318,42.495606 C16.7976346,43.4083123 16.6738422,44.7744117 15.6691433,45.6708373 C13.778091,47.3571239 10.8625331,46.2184611 10.8610476,43.5893735 C10.8600572,42.3702939 12.042522,41.7511337 13.0313755,41.4269996 C13.8196853,41.1684817 14.4639008,37.6286613 14.7228744,36.8758019 C15.3353991,35.0957779 16.0014021,33.4297189 16.2078877,31.5421435 C16.8184317,25.9524341 11.1284391,25.298739 7.27503014,23.4037633 C5.62809642,22.5936748 4.2797499,23.6469872 2.54269533,23.7195104 C1.49541186,23.763419 0.65956576,23.5127947 0.246099236,22.4930304 C-0.293635507,21.162946 0.646196184,18.8604593 2.00048474,18.3715447 C2.66896355,18.1307876 3.13838422,18.0858923 3.84548626,18.2304453 C4.59121151,18.3828919 5.78209413,19.8614761 6.3148965,19.8565426 C10.0870977,19.8234878 14.0816299,19.5299417 17.7344953,18.5743135 C23.5106474,17.0631679 24.4891023,10.0718375 25.5160838,5.20193264 C25.5502505,5.0420857 25.750299,4.92910746 25.8953836,4.89999953 C25.6017481,4.95870874 24.3776891,3.92513051 24.1687276,3.71890822 C23.7810099,3.33853169 23.655732,2.86885796 23.5844276,2.35379558 C23.3784371,0.869291096 25.4165547,0.302919826 26.4509638,0.152939977 C27.0714112,0.0626560551 27.4427883,0.884091739 26.7391524,0.98670953" id="path122" fill="#231F20"></path>
                    <path d="M24.1579329,19.3244101 C21.5137278,19.4985644 19.7182433,21.0171103 18.8670469,23.058119 L18.6561047,23.058119 C18.3030489,25.6235638 18.4520949,28.0178144 20.0405986,29.941898 C20.9224955,29.941898 19.2478323,26.4420393 19.1572162,25.1287289 C20.482785,15.093893 38.2182706,22.3274606 29.2794709,30.2931666 C27.3691071,31.3119442 24.3342133,31.9256775 22.6283544,30.6414751 L22.6283544,30.1175323 C22.452074,29.941898 21.8955035,30.0006072 21.8048875,30.0006072 C21.8048875,30.2625786 21.3062518,30.5536579 21.2755513,30.5827659 C22.7774004,32.5655587 29.5146765,32.6257479 30.7778538,30.1175323 C33.5116846,28.3074137 32.7813096,22.2120156 29.7191815,20.6949497 C28.4248084,19.4122273 25.7776323,19.3831193 24.1579329,19.3244101" id="path126" fill="#231F20"></path>
                </g>
                <path d="M159.61432,35.1688931 C159.443981,35.1960276 159.277109,35.2256289 159.1038,35.2256289 C159.073595,35.4214907 158.960696,35.4762531 158.850273,35.6459671 C158.736879,35.6755684 158.620019,35.6755684 158.533365,35.6755684 C158.306082,37.2799581 157.372192,41.6106263 159.670769,41.6106263 C165.627658,40.2588342 169.231006,47.7129313 162.650699,49.822023 C157.825768,50.6099105 155.049352,48.5289401 150.765146,47.0395021 C146.397256,44.8717013 140.180403,50.4406898 140.180403,54.519747 C140.293797,54.6312452 140.293797,54.6312452 140.55079,54.6312452 C139.413385,55.9524493 140.578024,58.6821812 141.00486,59.837618 C142.566129,61.9718708 146.537389,66.0247802 149.516823,65.7420879 C150.424469,65.1535156 150.73494,61.8337314 150.791885,60.4557916 C149.456908,58.7951594 146.25019,60.5391685 145.629743,56.9381721 C144.348244,55.6751839 147.585167,51.9034867 150.140737,52.9173308 C152.576971,52.9173308 154.902782,54.2923105 157.398436,54.9701799 C160.635854,55.3910116 166.221366,56.0392797 168.947769,53.3381624 C169.087902,53.2829066 169.231006,53.2251841 169.401345,53.1684483 C169.485028,53.0021878 169.801442,52.7747512 170.142118,52.4101621 C172.351069,48.5289401 172.32433,44.6472248 170.622433,40.3723058 C169.741526,40.2025918 169.401345,37.193621 167.249338,36.7150669 C165.484059,34.9695778 161.656399,35.1407719 159.61432,35.1688931" id="S"></path>
                <path d="M138.535747,13.3957166 C134.848715,14.3814394 133.056696,14.2423134 130.083699,16.4925044 C129.996549,16.519639 129.943071,16.519639 129.886126,16.519639 L129.886126,16.7169809 C127.898021,17.5601242 123.897051,24.255935 122.932461,26.0828277 C120.776988,32.8615222 121.427641,40.48484 127.667767,44.70401 C129.799472,46.8116215 132.552614,47.5728679 135.81281,46.7272579 C141.178466,44.16872 137.858355,40.6811952 134.791275,37.6421299 C128.578879,37.6421299 128.608589,26.535234 133.169595,24.7344891 C133.169595,24.6200308 133.203267,24.4804114 133.230006,24.339312 C133.714281,24.2820828 134.027724,23.7487663 134.734826,23.6076669 L134.734826,23.4113117 L135.045297,23.4113117 C135.045297,22.4255888 139.30326,22.2030858 140.153961,22.1182288 C143.897937,23.5529045 144.465401,25.7448797 143.981126,29.4006385 C144.011331,29.4573743 144.03807,29.5155902 144.095015,29.543218 C143.357212,31.989271 149.600804,32.5255476 150.905081,32.1866129 C150.935286,32.1037293 150.965491,32.0168988 151.01897,31.9044139 C154.248465,31.3706041 152.240058,17.8161753 147.558725,16.6592584 C147.558725,14.7208675 139.81675,13.3695688 138.535747,13.3957166" id="C2"></path>
                <path d="M117.513772,2.99194997 C116.976018,3.32940463 116.435293,3.89084235 116.235244,3.94609809 C115.444458,7.97039291 113.852984,12.1609483 113.292452,15.9010708 C111.897559,20.5987948 110.082268,25.4647529 109.118173,29.8526501 C105.9684,35.3367817 111.130047,36.9678126 115.357804,36.9678126 C117.940608,35.8424704 119.165162,25.4943542 120.976987,21.892371 C121.968317,17.6450798 124.547654,12.0760913 126.562994,7.77206429 C126.562994,5.55147449 125.261194,5.94369153 124.463971,4.73398565 C123.302798,4.73398565 121.170598,3.80795875 119.982687,3.43892939 C119.955948,3.07680699 117.687081,2.99194997 117.513772,2.99194997" id="I2"></path>
                <path d="M101.486522,-0.18693212 C101.456317,-0.103555165 101.430073,-0.0186981456 101.399867,0.0676389383 C101.286473,0.0957601599 101.176051,0.120921253 101.089396,0.120921253 C101.089396,0.599475375 100.382294,1.35973507 100.265434,1.69866979 C99.7247089,7.23756374 99.2478606,12.8928894 98.4803479,18.1520512 C98.1099611,22.9045377 98.1099611,22.9045377 97.9960722,23.4679488 C97.9163499,23.49607 97.8292,23.49607 97.7425454,23.49607 C97.0889217,21.7239397 93.7990156,17.5605188 92.2669612,16.267436 C87.3018967,9.88194528 84.7488028,22.4541048 83.0137289,24.7348838 C82.1095494,23.8335247 81.9961556,19.7564409 81.4252252,18.1520512 C81.2583531,16.6024239 78.9597763,4.03075777 77.3747388,2.85015981 C74.5086978,2.40022027 70.2542015,3.58180493 68.3789947,5.43829891 C66.7068073,9.20703596 72.1561475,18.0104584 72.7795659,22.0332731 C73.1469817,22.259723 76.0937353,31.8791542 76.3804384,32.9748951 C77.1177458,34.2965925 77.3445334,35.5610608 78.1957298,36.7150176 C86.5942995,36.7150176 85.8000476,32.3833628 89.8544954,26.5612832 L90.3684813,26.5612832 C91.0726124,27.2648071 92.2367558,27.9382363 93.1711407,29.036444 C93.8287257,30.5559767 96.1277977,32.4692065 97.1755763,33.8757609 C98.9908677,34.7731732 102.988371,35.7588961 104.606585,33.9872591 C105.173554,31.7074667 105.374098,29.0650586 105.600885,26.4221571 C106.988845,19.0509436 108.493665,11.5129761 109.798932,3.89113837 C109.798932,-0.132169742 104.466452,-0.0453393029 101.486522,-0.18693212" id="M1"></path>
                <path d="M54.4507682,11.9917769 C53.5465887,12.047526 52.5215879,12.300617 51.8144859,12.385474 L51.8144859,12.5813359 C49.7956799,12.5813359 45.6010991,15.1980895 44.7503979,16.4926525 C44.6667143,16.519787 44.6067988,16.519787 44.5503495,16.519787 C44.5503495,16.6890076 42.5082705,19.4735019 42.3943815,19.527771 C39.3584974,25.1268542 42.7949736,33.310623 46.50924,37.6723725 C47.9269102,38.8524771 49.1450271,40.6808499 50.9335793,41.3281313 C54.1705023,44.5344439 61.8253274,45.0697339 65.9991111,44.1969893 C67.331117,43.2112665 69.4029061,41.6103302 70.3674963,39.9210835 L70.5640786,39.9210835 C73.8010015,32.1867609 70.7042115,26.7874863 67.8713469,19.7275796 C66.8201021,18.1784457 64.6378901,14.3554396 62.592345,13.6242878 C59.9832969,12.0761406 57.2603599,12.047526 54.4507682,11.9917769 M54.7642105,19.6146014 C55.7555398,19.6146014 58.4482715,20.4577447 58.9954338,21.3847583 C61.0340466,22.5401952 61.7951221,26.535382 63.0231424,27.3494174 C65.8862124,33.62341 65.9391955,36.7715067 58.1080901,36.7715067 C56.1526658,36.2095756 55.0182325,35.1957316 53.3995234,34.4941811 C49.1786987,31.0628987 45.7144929,22.7345769 52.6354769,20.0916755 C52.6354769,20.0068184 52.6656822,19.9239348 52.6919262,19.8390778 C53.3762504,19.7843154 54.0566133,19.6994584 54.7642105,19.6146014" id="O"></path>
                <path d="M33.0046805,33.2542326 C29.400837,33.5936607 24.9160869,35.7027523 22.6541527,37.9534367 C22.3100099,38.4023896 22.3402152,38.373775 22.0832223,38.4305108 C21.6860963,39.3580177 21.065649,39.4991172 20.8883783,40.1755066 L20.691796,40.1755066 C20.3813247,41.0467711 19.8103943,41.835152 19.4439689,42.3137061 C19.5836067,42.6758285 19.5836067,42.6758285 19.5573627,42.986642 L19.3568191,42.986642 C18.1357311,47.2373867 18.7631108,53.0303583 21.4895141,56.4616407 C21.4895141,56.6012601 21.4895141,56.7142384 21.5162532,56.8272166 C21.9732946,56.966836 21.9732946,57.5302471 22.4238989,57.7532435 C23.3879939,60.0039279 29.7142793,62.7316864 31.8702472,64.2512191 C37.6563027,66.6711242 43.1051478,66.6148818 48.6644156,62.6468294 C51.3908188,59.7513303 52.5519913,56.3767837 53.2328493,52.0145409 C53.2328493,44.083863 48.2940289,47.2921491 44.2133371,49.9917863 C44.0395326,51.173371 44.0959819,52.1576138 44.0697379,53.0589729 C44.1534216,53.1433366 44.2430473,53.2247401 44.3262357,53.3095971 C44.1301486,55.7018744 42.2509804,57.3042907 40.2653508,57.3042907 C40.1821623,57.4157888 40.125713,57.5302471 40.0692636,57.6432254 C38.5372092,57.2495283 32.6640039,56.6841437 32.0138464,54.687537 C28.7204741,52.2143496 27.3018135,49.8788081 28.1232997,45.6315169 C29.8281683,42.8751439 30.595681,42.8751439 34.1391138,42.3965897 C34.1391138,42.4543122 34.1693192,42.4834202 34.1995245,42.5115414 C34.6798389,42.4834202 35.6142237,42.7907802 35.8410114,41.8050574 L36.0410598,41.8050574 C36.1811928,41.2993687 36.3782703,41.0467711 36.8318455,39.6140689 C36.865517,39.6140689 36.8853238,39.5839742 36.9452393,39.555853 C36.9452393,37.2504062 37.1452878,36.0668481 36.2980528,33.8191238 C36.2113981,33.8191238 36.1212773,33.8191238 36.0410598,33.7890291 C35.8142722,33.0874787 33.4052726,33.2542326 33.0046805,33.2542326" id="C1"></path>
                <path d="M146.737487,106.3589 C143.727846,109.591854 142.566179,114.852989 139.816503,117.579268 C138.365656,120.16938 138.592444,120.278905 140.578073,122.164014 C141.856106,122.868524 153.938737,131.250128 154.16899,131.981773 C154.902832,132.150994 155.984282,133.27683 156.778038,133.697168 C157.031565,134.205817 164.265496,139.322399 164.776511,139.322399 C164.833456,139.208927 164.889905,139.097922 164.973093,138.984944 L165.600968,138.984944 C165.600968,138.705705 166.534858,138.311515 166.735402,137.495506 L166.931984,137.495506 C166.988433,137.297671 168.126333,135.919238 168.777481,134.852111 C169.401394,134.541791 173.315709,127.789245 173.542497,126.582499 C174.109466,126.21643 176.468948,122.025874 176.292173,121.095407 C174.933923,120.195528 171.870804,119.688853 171.103292,118.734705 C168.690331,117.86196 165.316741,132.066137 162.507645,129.506119 C158.222943,127.932317 158.253148,128.156794 159.670819,125.091087 C160.151628,125.091087 164.322936,119.575874 163.671788,118.595085 C158.42002,114.852989 158.903306,116.596998 156.320997,120.084523 C155.756999,121.237987 154.762699,122.363329 154.505706,123.149736 L154.308628,123.149736 C154.248713,123.318957 154.19573,123.487191 154.138785,123.656905 C153.060801,123.656905 147.728816,120.16938 146.904359,119.575874 L146.904359,119.211779 C149.063298,117.777103 150.848879,113.500211 152.493832,110.943153 C155.159825,109.619975 147.354963,106.415143 146.737487,106.3589" id="E"></path>
                <path d="M136.066188,125.006674 C135.645789,125.483748 135.158542,126.019038 134.735172,126.160138 C134.648518,126.356493 134.564834,126.554328 134.478179,126.720589 C133.683432,126.720589 132.519289,128.35458 132.49255,128.605204 C132.519289,128.66194 132.552465,128.692034 132.605944,128.718182 C132.49255,128.805013 132.4054,128.859775 132.322212,128.914537 C132.182079,130.292477 145.342693,143.430021 145.799735,143.371805 C145.853708,143.597762 145.910157,143.794117 145.966607,143.993432 C146.140411,144.021554 146.307283,144.048195 146.480593,144.074836 L146.480593,144.864204 C143.644262,145.791711 132.833226,138.761899 132.49255,143.627857 C132.805992,143.93719 133.490316,156.394398 131.021401,156.789575 C129.288803,154.708605 127.870638,148.885538 127.019937,145.791711 C125.485406,143.963338 124.463872,133.391239 120.920439,135.610348 C116.071739,137.212765 116.665943,136.820548 117.910304,141.544913 C118.253951,142.16506 119.165063,145.343251 119.24528,146.044802 C121.170499,152.176708 123.870163,158.393965 125.148196,164.522911 C125.882532,166.072045 126.61984,167.618219 127.360613,169.165873 C130.484142,169.867423 132.37569,166.801717 135.128337,166.520998 C137.768581,162.27568 137.801262,155.551255 138.395465,150.629547 L138.592543,150.629547 C138.81933,149.956118 138.96293,149.701547 139.98694,149.418855 C144.294915,149.730162 148.749459,150.602906 153.341166,150.911746 C154.562749,151.698154 156.494405,150.321694 157.768972,150.010881 C157.768972,149.053279 161.119288,147.113408 161.119288,144.77984 C160.722162,144.77984 156.948476,141.573034 156.690988,141.350038 C155.870492,140.870003 153.828413,138.590704 152.920767,138.477726 C152.920767,138.197007 149.430317,135.63847 148.889592,134.964054 C145.853708,133.05033 139.132773,125.006674 136.066188,125.006674" id="M2"></path>
                <path d="M111.58382,139.265762 C109.401608,139.659952 107.329324,140.081771 105.461049,140.61558 C105.400639,144.103105 106.935664,147.507746 107.306051,150.883773 C107.559578,151.051514 111.130245,169.785674 111.473892,171.472948 C112.521671,173.891866 117.770468,173.160221 119.245578,170.965779 C119.785807,166.326271 116.919271,160.390226 116.155225,155.49516 C114.990586,152.655903 114.136419,148.436734 113.682844,145.173685 C113.232239,143.936845 113.292155,139.60519 111.58382,139.265762" id="I1"></path>
                <path d="M90.421613,141.150772 C89.0603921,141.544962 89.4000784,141.881923 89.3173851,143.062521 C89.6843057,149.645354 89.8541488,156.228187 89.7709603,162.639332 C90.3948739,163.259479 90.6181953,171.612468 88.0423236,169.054424 C84.2919099,168.799853 81.3723906,165.705038 80.7182717,170.65684 C80.6647934,170.683481 80.6345881,170.713083 80.6083441,170.713083 C80.4380058,171.752088 80.2642013,172.767905 80.1240683,173.778296 C81.6595889,175.297828 91.2762756,175.635283 93.2044656,175.692019 C93.6015915,176.085716 103.92538,175.579041 105.654512,174.509941 C105.884766,173.357957 105.48764,170.65684 104.920176,169.531498 C104.920176,166.943359 96.9751812,170.066788 95.30646,168.406156 C95.9541417,166.042 96.7186834,147.16822 96.638466,147.113457 C96.8083091,145.426184 97.4025125,143.597811 97.2891187,141.742797 C97.0350967,141.237109 90.6488958,141.150772 90.421613,141.150772" id="T"></path>
                <path d="M66.7463218,133.391535 C66.6061889,134.460634 57.4004929,150.93819 57.2866039,150.994926 C56.4393689,152.682199 52.0412735,160.812686 50.9603185,161.515716 C50.9603185,163.540444 54.8721575,165.143847 56.6839826,165.293827 C58.963743,163.227164 75.2983941,148.32341 75.2983941,148.32341 C75.2983941,148.32341 68.5219996,169.81049 69.2627732,170.909191 C70.9309992,171.472602 73.9713398,172.767658 75.786136,172.541702 C77.1745913,169.757208 77.2582749,165.201076 78.3055584,161.881786 C79.2765857,156.508659 82.791794,141.363161 82.2416607,140.815044 C80.226816,140.055771 78.6982278,138.705952 76.3991558,138.790809 C75.9485516,139.577217 65.7990626,149.701843 65.175149,149.222796 C65.1484099,149.083176 65.1484099,148.915436 65.1484099,148.744242 C65.4286758,148.463523 65.8292679,147.956354 66.1427102,147.311539 C66.1961885,147.311539 66.2565992,147.282925 66.3363215,147.254804 C66.4799206,146.749608 72.3640197,136.090679 72.2501307,135.837588 C70.0946579,134.572626 68.7884008,133.58789 66.7463218,133.391535" id="N"></path>
                <path d="M58.3918222,140.251287 C55.5208295,145.064456 45.4877053,158.899111 45.4877053,159.123587 C43.7863029,158.899111 41.4604918,156.394349 40.4057808,155.129387 C40.7528946,153.215664 42.8751911,151.809603 43.2188387,150.376407 C44.9771856,148.631411 53.8798378,138.453009 53.8798378,134.148489 C53.8798378,132.291008 52.247264,131.514468 50.5755718,131.535189 C50.555765,131.535682 50.5324921,131.538149 50.5111998,131.539629 C50.5008012,131.640273 50.488422,131.740918 50.4795089,131.842055 C47.4134194,131.503121 33.0346878,147.141973 32.6375619,147.507549 C30.6222221,147.733506 29.3174504,144.470457 28.039418,143.627807 C28.039418,141.825582 42.284949,128.183336 42.8514229,128.183336 C44.2963275,126.018989 52.9880376,121.116523 58.0684765,126.178343 C63.1484203,131.240162 61.2628149,135.438118 58.3918222,140.251287" id="U"></path>
                <path d="M39.5550301,106.443708 C37.8263934,107.371215 27.7828707,111.224316 27.4421941,111.899225 C25.2035328,112.743848 14.9025219,117.187001 14.7089107,117.777054 C14.4217123,117.833789 14.1414464,117.890032 13.8844535,117.945288 C12.9500686,120.112595 21.149085,135.748488 21.9997862,136.172279 C22.1963685,136.960167 22.9108981,137.438721 23.2743525,138.028773 C24.6355734,138.028773 27.4154549,135.748488 29.0906133,134.852555 L29.0906133,134.652747 C29.3174009,134.652747 29.5709277,134.400149 29.741266,133.923075 C28.6365429,132.460278 20.9188312,121.856604 22.6539051,120.927124 C22.7370936,120.927124 22.8509826,120.927124 22.960415,120.900483 L22.960415,120.702647 C24.0418652,120.534907 25.2867213,119.096778 26.618232,118.959132 L26.618232,118.761296 C27.5288487,118.651772 28.1497913,117.890032 29.1470626,117.692197 C31.4461346,119.211729 30.3354694,125.541471 34.9603524,121.969582 C35.6407153,121.630648 36.3250395,121.294673 37.0321416,120.955738 C36.6884939,119.183608 34.3958592,117.2985 34.766246,115.077416 C37.0024314,115.077416 40.4394028,112.687113 42.8513734,111.899225 C42.8513734,111.478887 42.3646218,111.224316 42.1413004,111.194221 C42.1413004,110.353544 39.9853324,108.100887 39.8120231,106.415093 C39.7288346,106.443708 39.6416848,106.443708 39.5550301,106.443708" id="F"></path>
            </g>
            <g id="Rahg" transform="translate(39.657534, 45.780488)" sketch:type="MSShapeGroup">
                <g id="g140" transform="translate(11.428446, 77.068381)" fill="#FFFFFF">
                    <path d="M18.3212711,4.57966998e-16 C17.3066688,1.51953268 15.3477783,8.35348288 15.2611237,8.40972532 C11.0071226,8.40972532 3.28842058,8.63420174 1.13294779,12.7399001 C-0.311956778,14.1760558 -0.28175144,19.1811399 0.992814826,20.4500484 C2.04405965,20.7855296 1.27951796,21.799867 1.7301222,22.3894259 C5.61423167,24.9479638 10.0989817,26.073306 14.8105194,26.7763365 C15.8850372,27.8469164 24.9916993,27.5647174 26.9233555,27.4798604 C32.8228048,26.4670031 38.6355994,25.3421542 38.6355994,17.8614159 C38.2117343,15.1035628 37.474427,13.3319258 34.611357,11.8972502 C29.586377,10.0417429 25.5051901,8.15712768 19.9726614,8.07227066 C16.959555,8.69044418 21.4145949,0.857450581 18.6614525,-0.0562424432 C18.5480587,-0.0281212216 18.4346649,4.57966998e-16 18.3212711,4.57966998e-16" id="path142"></path>
                </g>
                <g id="g144" transform="translate(10.823992, 76.629936)" fill="#231F20">
                    <path d="M19.3116101,0.493354765 C17.7533117,3.08198722 17.5309806,6.21873681 16.2514626,8.90308009 C16.1727307,9.06884729 15.9677305,9.26273571 15.7696627,9.26273571 C11.6736207,9.27210945 6.65062141,9.22820088 3.26415727,11.8538349 C1.33992864,13.3462331 0.971027369,15.8539554 1.13542364,18.1145069 C1.23099135,19.4312708 1.54393847,19.882197 2.40256236,20.8323983 C3.0690605,21.5699637 2.06980847,22.0889729 3.31912109,22.8783405 C7.3324698,25.4127039 12.3282348,26.3115963 16.8729004,27.2534106 C20.1583499,27.9342401 23.7740775,27.6397074 27.1055779,27.523769 C31.0847599,27.3851363 36.3498971,25.9869689 38.1587512,22.1274546 C39.2936797,19.705576 38.9069523,16.6166818 37.3115162,14.5075902 C35.7418289,12.4335268 32.443505,11.7694713 30.1236359,10.9248479 C27.2481867,9.87745575 24.3405514,9.16949166 21.2853557,8.95586905 C20.3564177,8.89074622 19.436888,9.21685372 19.1080954,8.14528717 C18.776827,7.06730701 20.7941475,0.527396244 18.829315,0.853010389 C18.2306551,0.952668051 18.5886626,0.0952174696 19.0219359,0.0236810287 C21.8825301,-0.450926255 20.1355721,5.40667487 19.9617676,6.58776618 C19.7508254,8.02737538 20.4049443,8.08361782 21.6869381,8.12653969 C23.3863598,8.18327549 25.0664699,8.5103697 26.7148891,8.9040668 C29.8364376,9.6500192 33.3184694,10.7640143 36.1330128,12.2865071 C40.0567359,14.4089193 40.4454439,19.6636409 38.4192103,23.2256623 C36.402385,26.7718963 31.695799,27.5800114 28.0414482,28.2277862 C24.4593921,28.8627338 20.0429754,28.6698321 16.4718131,28.0822466 C14.441123,27.7482454 12.3480416,27.1660868 10.3262645,26.6825991 C7.82813446,26.0851465 3.73852965,25.1191579 1.96681321,23.1580727 C1.49541186,22.6361033 1.72814152,21.8408154 1.22901067,21.2182017 C0.71799576,20.5807874 0.515966608,19.8723299 0.357512371,19.0775354 C-0.00495169489,17.2600165 0.162910762,15.0616276 1.09779076,13.4330635 C3.2037466,9.76447751 7.60827921,8.94205511 11.5022921,8.58733304 C12.8224139,8.46744783 14.1509537,8.44475351 15.4755321,8.43439306 C15.5968486,8.43340635 15.4383943,8.95290892 15.6572593,8.27010592 C15.8216555,7.75800368 15.9806049,7.24392801 16.1435157,6.73133241 C16.8080332,4.63112118 17.3938187,2.28669934 18.5396409,0.383336652 C18.7817787,-0.0182541263 19.6448592,-0.0596959266 19.3116101,0.493354765" id="path146"></path>
                </g>
                <g id="g148" transform="translate(15.329341, 89.274816)" fill="#231F20">
                    <path d="M6.93237285,-2.49800181e-16 C6.67488472,0.0863370839 6.45156328,0.169714039 6.22477565,0.225956482 C5.99749286,1.71539452 4.35253981,3.0953078 3.52857778,3.99469353 C2.59419296,3.99469353 1.94056923,3.49097832 1.23247686,3.60050307 C1.23247686,3.46088368 1.82668025,0.62014694 0.945773725,0.143072882 C0.185193389,0.197835261 0.125277881,8.24346477 0.352065507,9.2257341 C2.05346787,9.53654761 4.35253981,10.6337686 5.76723904,8.66380303 C6.28172014,7.11614913 6.1980365,5.51373285 4.52683947,4.58622589 L4.52683947,4.27541239 L4.71995557,4.27541239 C4.71995557,4.19252879 8.29705997,-0.673429254 6.93237285,-2.49800181e-16" id="path150"></path>
                </g>
                <g id="g152" transform="translate(23.353117, 90.456648)" fill="#231F20">
                    <path d="M4.95169489,1.73472348e-18 C4.78135659,0.195861842 4.78135659,0.195861842 4.58427913,0.224476418 C4.58427913,1.04245862 4.35749151,1.46279688 4.13070388,1.96996558 C3.39339651,1.99463331 3.30674185,1.94184435 1.26763389,1.85501392 C1.2106894,1.46279688 1.18097923,0.448952836 0.787319488,0.056735798 C0.560036693,0.114458305 0.357017202,0.16774062 0.159444576,0.224476418 C0.273333558,1.91322978 1.12403474,7.45360379 1.86183728,8.38308417 C2.25896321,8.38308417 2.20201872,8.38308417 2.62934999,8.2419847 C3.0527199,6.75254667 3.84350558,4.61286705 4.69767295,2.9556884 C4.75164642,2.9556884 4.81156193,2.9556884 4.8947504,2.92559376 C4.92099439,2.3089003 5.20868786,1.71539452 5.45825328,0.900865801 L5.66226311,0.900865801 C5.68553608,0.674909318 5.71871243,0.448952836 5.74594676,0.224476418 C5.52213015,-0.0562424432 5.06508871,1.73472348e-18 4.95169489,1.73472348e-18" id="path154"></path>
                </g>
                <g id="g156" transform="translate(35.681104, 90.933820)" fill="#231F20">
                    <path d="M5.44686438,1.00613962e-16 C4.96605481,0.480527541 5.1334221,0.480527541 5.07994379,0.872744579 C3.40131922,0.872744579 3.46123473,-0.646788097 1.16562898,0.759766338 C-3.28941092,5.65483232 4.51247956,9.81726647 5.02349447,7.20297957 C4.93634464,7.11812255 4.87940015,7.03326553 4.82295083,6.91979393 C1.98661999,7.31250433 1.19236813,6.49797561 0.852186691,3.7998184 C0.852186691,0.816008781 4.25944795,-0.337454659 4.73926718,3.43276245 C4.33917024,3.43276245 3.97175448,3.43276245 3.60483388,3.40266781 C3.54491838,4.75593993 4.1985421,4.58622589 5.44686438,4.36174948 C5.78754099,3.82793962 5.76080184,2.42187854 5.78754099,1.5476539 C6.04403879,1.29505626 6.58476387,-0.222996354 5.44686438,1.00613962e-16" id="path158"></path>
                </g>
                <g id="g160" transform="translate(29.711539, 91.187997)" fill="#231F20">
                    <path d="M0.495169489,2.02962647e-16 C1.37558084,1.74400909 -0.442681524,5.84970745 -0.045555593,7.42745599 C0.0713044065,7.51033959 0.18469822,7.56707538 0.298587202,7.62331783 C1.06263372,7.00317089 1.00519406,5.40075461 1.11908305,4.13579299 C4.29559532,4.19252879 3.75487024,4.38888399 3.9291699,7.51033959 C4.04206854,7.62331783 4.04206854,7.62331783 4.52287812,7.65143905 C4.7764049,7.39736135 4.55258829,1.5476539 4.55258829,0.422311679 C4.43919447,0.365575881 4.356006,0.310813502 4.26885617,0.254571059 C4.21240685,0.310813502 4.15249134,0.337454659 4.12921837,0.365575881 C4.04206854,0.337454659 3.95888007,0.310813502 3.90193558,0.254571059 C3.22107753,1.15346344 3.72813109,2.41891841 3.5315488,3.31830415 C2.54071465,3.34642537 1.8598566,3.0953078 1.17553237,3.06521315 C1.25921601,2.50377543 2.02672872,-0.197835261 0.495169489,2.02962647e-16" id="path162"></path>
                </g>
                <g id="g164" transform="translate(24.960982, 93.412188)" fill="#FFFFFF">
                    <path d="M7.97972799e-17,0 C-0.0866546607,0.0266411573 0.563998049,3.51416599 0.563998049,3.82349943 C0.650652709,3.82349943 0.733841183,3.79685827 0.847730166,3.76676363 C1.27803245,2.55656439 1.69892652,1.32169742 2.12229643,0.0828836005 C2.04207897,0 2.04207897,0 7.97972799e-17,0" id="path166"></path>
                </g>
                <g id="g168" transform="translate(43.030806, 93.747965)" fill="#231F20">
                    <path d="M0.990338979,-1.49186219e-16 C0.0792271183,0.280718861 -0.0311956778,6.94692845 0.422874744,7.73629607 L1.87075033,7.73629607 C2.26837143,7.48024495 2.24113711,-0.392217038 0.990338979,-1.49186219e-16" id="path170"></path>
                </g>
                <g id="g172" transform="translate(16.561967, 93.804602)" fill="#FFFFFF">
                    <path d="M0,0 L0,3.88319535 C1.19137779,4.35829599 2.1292288,4.64098827 3.54739422,4.01936127 L3.54739422,3.82497949 L3.74447168,3.82497949 C4.64865117,0.644814678 2.03910796,0.505195279 0,0" id="path174"></path>
                </g>
                <g id="g176" transform="translate(-0.180952, -0.206220)" fill="#231F20">
                    <path d="M2.97101694,74.0032147 C1.65634194,72.0445963 0.221835931,70.9537889 0.0381280507,67.9507385 C-0.14557983,64.9481814 -0.95023025,62.7922211 1.79399906,60.9623682 C2.3045188,57.6978398 -0.0812077963,49.4292139 2.3045188,47.4030059 C2.38770728,47.2086241 2.87198304,46.8410748 2.98537685,46.4488578 C3.976211,46.1380443 4.46048676,45.6318623 4.46048676,45.6318623 C4.52040227,44.4783988 4.54318007,41.7185723 5.22354294,41.7185723 C5.69543947,40.5429079 5.42458176,39.8926663 5.42458176,39.1911158 C2.69520753,37.2675256 4.91455718,33.9817829 5.99303633,32.2757621 C7.07102031,30.5702347 11.5349733,28.6313504 11.464164,29.1207584 C16.9699536,27.7714331 23.5804663,27.7428185 28.7990575,30.8381263 C36.2904767,33.4830012 43.8383452,34.4371493 51.8333518,35.1401798 C51.9205016,34.7198416 52.0334003,34.1579105 52.3968547,33.5096423 C53.5085102,32.4124213 52.7974468,27.379216 52.0606346,25.6036322 C50.4453917,23.6371201 51.4926752,19.4465648 48.3726123,18.9956385 C47.9492423,18.1233873 42.2731145,19.0523743 41.8759886,19.1071367 C41.8497446,19.2768507 41.8230054,19.4199236 41.8230054,19.559543 C41.4491525,19.559543 39.0966022,22.903995 38.9000199,23.2981854 C34.8688451,26.4763768 31.7789875,24.5646271 29.7903868,20.6000282 C29.4502054,20.2610935 29.3927657,20.4308075 29.3927657,19.8683831 C29.9874643,19.2768507 30.8143973,20.4569553 31.5219945,20.6000282 C31.5219945,18.2644868 31.0951584,17.5047204 34.0448831,20.0084958 C35.0124443,20.0084958 35.5799085,19.2768507 37.1416731,19.8402619 C37.2813109,19.8402619 37.4214438,19.8402619 37.5952483,19.8121407 C37.7918306,19.389829 37.7655866,19.0242531 38.0458526,18.3473704 C35.4694857,15.1425378 36.2607665,17.0276464 32.9703653,17.0276464 C32.1761134,14.6358625 38.6425318,10.7541472 40.1211079,15.5352482 L40.7984997,15.3689876 L40.7984997,15.170659 C41.365964,14.9185547 42.189926,14.4661484 43.013888,14.1869096 C43.5214368,13.1730656 48.1161145,13.5667627 49.4510914,13.4256632 C49.4510914,10.2188572 46.2211008,5.04405912 44.0651329,2.54077704 C44.0651329,2.31630062 44.0884058,2.0918242 44.1215822,1.83922656 C44.0354227,1.83922656 43.7299031,1.72772839 43.6130431,0.965495275 C55.1693087,-1.29801639 65.7629647,-0.193395068 74.2897833,3.00107704 C81.946094,5.86993499 93.0695814,14.3901718 93.2300163,14.5332447 C92.7348468,16.6300024 95.0121313,20.0647383 95.098786,20.3720983 C95.098786,23.6089989 88.317935,23.6371201 86.8705546,23.7486183 C86.8403492,23.917839 86.8403492,24.0840996 86.8403492,24.2538136 C88.0911473,24.6193895 91.8920683,25.8863245 92.8299194,26.8138315 C93.1666346,28.5025848 91.9188075,30.5574074 91.2983601,31.6807762 C91.2112103,31.7079107 91.1245556,31.736032 91.040872,31.736032 L91.040872,31.9338672 C90.4174536,32.3275643 86.3298295,33.6492617 85.9361697,33.6206472 C85.9361697,33.8184824 85.9629089,34.0163177 85.9891529,34.1830716 C87.5241783,34.4371493 92.3996171,33.9600752 93.2805236,35.5057557 C93.2805236,37.6434619 91.8920683,39.7515668 90.2203762,40.3697404 L90.2203762,40.5690557 C89.1423922,40.9351249 89.1423922,40.9351249 87.8910989,41.5266573 C87.8910989,41.9756101 88.034698,41.9756101 88.2050363,42.2849435 C90.1035162,42.1172029 93.9910918,40.2602156 95.2686291,42.2849435 C95.2686291,46.5036201 95.1522643,48.8391616 91.4112588,50.1623391 C91.4379979,50.5831707 91.4379979,50.5831707 91.6053652,50.8638896 C92.4293272,50.9186519 94.4446671,50.7509113 96.0326756,50.8076471 C96.9710218,51.7351541 95.5493902,58.7102037 94.7551383,58.9642814 C93.3934222,61.0171306 91.4919714,59.9786188 90.8140844,62.338828 C90.8140844,67.0651667 88.2050363,72.5788995 86.272885,76.4300268 C84.2877505,78.7374471 83.4400203,84.5590333 80.9408999,85.3750421 L80.9408999,85.5713973 C77.6772378,87.0341941 75.524736,89.0036664 72.0347815,87.2882719 C70.2457341,87.4278913 66.2452598,87.4579859 65.4208026,89.117138 C60.4324652,90.2138656 55.8640315,88.8078045 51.6065642,86.5867214 C50.9519501,86.217692 50.3319979,85.8540896 49.7080844,85.4865403 C48.1161145,83.1258377 40.9955772,82.0271366 39.607122,79.272737 C35.9502953,77.1350308 35.2392319,75.4743987 31.1516078,74.3490564 C29.0565456,73.195593 16.5728276,74.81577 13.4349386,75.590337 C10.2970495,76.3644106 4.28569193,75.9618332 2.97101694,74.0032147" id="path178"></path>
                </g>
                <g id="g180" transform="translate(87.095592, 14.454458)" fill="#23723C">
                    <path d="M3.96135592,7.97972799e-17 C3.87470126,0.533809856 1.23891406,4.22213008 1.18196957,4.24877124 C0.587766184,5.65680573 0.157463898,7.00662437 -0.209456694,8.27355941 C2.91407245,7.79451193 4.95615142,8.72201889 6.8244259,5.82651977 C6.8244259,4.22213008 4.92594608,2.90043266 4.92594608,0.819462265 C4.53179117,0.52394276 4.385221,0.393697102 3.97472549,-0.0133205787 C3.96135592,-0.0217076097 3.96135592,-0.0266411573 3.96135592,7.97972799e-17" id="path182"></path>
                </g>
                <g id="g184" transform="translate(0.783292, 0.116335)" fill="#67C653">
                    <path d="M86.1594912,10.8538048 C85.9891529,10.2903937 81.8178451,7.92673101 81.7084126,8.01306809 C81.3078205,10.3752507 78.6413328,8.43537977 78.0476246,7.08556113 C78.0778299,6.4086784 78.1912237,6.26955235 78.1912237,5.70564786 C77.2538679,5.3681932 76.3160169,4.4673274 75.3846031,4.24285098 C71.9213877,2.6971705 67.9204182,1.29061607 64.3170698,0.868304386 C64.2031808,0.755326145 61.4505336,0.166753911 61.3099055,0.166753911 C59.5213533,0.110511467 59.4683702,0.0537756694 52.2037386,-0.00444019288 C49.6813452,0.896425608 45.9943132,0.276772023 43.6051204,1.31725722 C43.6051204,1.51657255 47.0113913,6.77474763 47.1252803,6.83099008 C48.1195806,8.85769145 48.7434942,10.7694412 49.3376976,12.8504116 C49.6813452,16.2249582 50.0185556,23.9030384 52.4572654,26.3234368 C53.1118794,26.2405532 53.6486432,25.9573676 54.416651,25.7052633 C54.556784,25.8730039 54.6964218,26.0422246 54.8702263,26.1838174 C52.0334003,28.0388314 51.8670233,27.9273332 52.8845966,31.8090485 C52.9979905,31.8090485 59.8352908,29.6427277 59.2113772,31.498235 C56.6023292,31.8090485 51.7536295,31.9767891 51.7536295,35.1831017 C53.3649111,35.9695092 55.3540069,36.7573968 57.1420639,37.4609207 C59.3782493,39.1777952 61.623843,40.8635885 63.8629994,42.5523418 C63.8629994,44.5785499 58.5305192,39.3741504 57.2524867,38.6410253 C56.6587785,37.4609207 51.1529889,35.8585044 49.7343284,35.4080715 C45.2268005,35.4080715 40.4617845,34.7311887 36.3172159,33.5229629 C34.6722628,33.3547289 23.8939085,30.5159656 23.4972778,29.6994635 C20.4604033,29.0793166 14.0202289,27.363922 11.8647561,29.5016282 C8.4312509,30.1217752 4.71747973,32.0335249 4.11981015,35.2965733 C4.11981015,39.7116051 4.96754032,37.5472577 6.72638235,35.9981238 C6.72638235,35.942868 6.72638235,35.8866256 6.75658768,35.8032486 C7.97718048,35.5210497 9.39584106,34.4519499 10.9269051,33.8071353 C14.5876932,33.2703653 18.7287956,31.4414992 22.7292699,32.904296 C24.4316626,32.904296 35.7497516,36.111102 37.0545232,37.4041849 C41.8497446,39.6834839 46.3577676,40.9499256 51.579825,42.2148872 C52.003195,42.5523418 53.9922908,43.7077787 54.6731488,43.9021605 C58.5607245,47.4760224 60.8830694,48.4301705 60.4889145,54.0287604 C60.0318731,54.1402586 59.0677781,55.7727695 58.9009059,55.9706047 C51.0391,60.1049177 41.9066891,54.6454538 35.6665632,50.1756597 C30.9847356,47.3896853 24.2613243,44.128117 18.9555832,43.7329398 C17.564157,42.8049395 5.14134481,44.605191 3.80636787,46.6017977 C-0.818019997,46.6017977 1.82123338,56.1950811 1.93759821,58.8379826 C1.45431279,61.2865023 1.45431279,61.2865023 1.39340694,61.9614116 C-1.07550813,61.9614116 -0.0514976269,69.1609377 0.913587708,70.4826351 C4.06336083,77.9663336 16.1192524,73.1837525 22.4163228,72.6499426 C28.7426082,72.7333196 32.0325143,72.9030336 37.0545232,76.8957537 C37.0545232,77.5973042 44.1720895,81.8460754 45.026752,82.2678938 C45.9943132,84.1796435 57.4827405,84.9961456 57.5124507,85.755912 C54.8434871,85.7840332 52.1769994,85.2783445 49.7343284,84.8545528 L49.7343284,85.0523881 C51.3530374,85.5861979 52.9143068,86.9374966 54.6196705,87.2187088 C60.145762,90.1142079 63.5490619,87.6410205 68.9419529,86.1777303 C67.8639689,85.1091239 64.2596302,84.9394098 63.5762963,83.900898 C62.1041574,83.3656081 60.2324167,81.621599 59.1514617,81.3690014 C57.3688515,79.5386552 55.6075337,77.7117625 53.852653,75.8567486 C52.7142583,74.0264024 52.0641008,72.7333196 51.9467456,70.5107564 C52.9717465,70.371137 52.5741254,73.4911125 53.5654547,73.97016 C54.8132818,76.3071815 58.1903377,80.3551573 60.4889145,81.451885 C63.9194487,83.816041 68.3210103,85.1939809 72.2883083,86.7115401 C77.5935542,88.0065964 82.3021208,83.4766129 82.8690899,78.2470524 C82.9265296,78.2470524 82.9829789,78.2189312 83.0696336,78.1888366 C83.0696336,77.9924814 83.0963727,77.7684983 83.126578,77.5420485 C83.2969164,77.5420485 83.4632933,77.5139272 83.6366026,77.485806 C83.6633418,77.2332084 84.3744052,76.3071815 84.7145866,75.996368 C87.7242268,70.0322022 89.1993367,63.7883043 90.1035162,56.8413759 C90.1035162,50.765712 89.2562812,47.6704042 86.6437669,42.4975795 C86.0728365,42.1315102 84.7982702,36.7292755 84.4912652,35.6902704 C83.7504916,29.0211007 84.7145866,23.9311596 87.35384,17.5481356 C87.9782487,16.7321269 88.5887927,14.5959007 89.9203034,13.9777272 C89.9331778,13.9708202 89.9638784,13.9609531 89.9500136,13.9673668 C89.9331778,13.9787139 86.6769433,11.0383195 86.1594912,10.8538048" id="path186"></path>
                </g>
                <g id="g188" transform="translate(78.133668, 35.980908)" fill="#23723C">
                    <path d="M0,1.97341906 C0,3.18016481 0.954191606,4.15799396 2.12873364,4.15799396 C3.30674185,4.15799396 4.25796244,3.18016481 4.25796244,1.97341906 C4.25796244,0.766673305 3.30674185,-0.207209001 2.12873364,-0.207209001 C0.954191606,-0.207209001 0,0.766673305 0,1.97341906" id="path190"></path>
                </g>
                <g id="g192" transform="translate(77.137041, 35.244970)" fill="#231F20">
                    <path d="M1.98067796,-4.16333634e-17 C0.0519927964,0.95562818 0.472886862,0.95562818 0.192620931,2.67151605 C0.449118727,3.00699729 0.899722962,3.06323974 1.3567644,2.86737789 C1.3567644,-2.84073674 7.70681793,3.90786309 3.31218872,4.52801003 C2.37829906,4.02281475 2.31838355,4.04945591 1.4671872,4.19055537 C1.4671872,6.04754271 7.45675734,6.15706747 4.92743159,0.925533539 C3.79299829,0.0300946407 3.25524422,-0.0848570196 1.98067796,-4.16333634e-17" id="path194"></path>
                </g>
                <g id="g196" transform="translate(79.583871, 6.581749)" fill="#23723C">
                    <path d="M0.495169489,-2.08166817e-17 C0.355036524,0.111498177 0.211437372,0.224476418 0.071799576,0.309333438 C0.071799576,2.27929901 1.62960279,1.6872733 2.90763524,1.37645979 L2.90763524,1.12534222 C1.1458222,0.224476418 0.665507794,-0.0848570196 0.495169489,-2.08166817e-17" id="path198"></path>
                </g>
                <g id="g200" transform="translate(51.222890, 7.482714)" fill="#231F20">
                    <path d="M19.8067796,0 C17.1704972,1.29160277 16.2326462,1.40458102 14.2737557,3.00897071 C8.88482615,6.49797561 11.0972434,3.26156835 7.12697446,2.16632077 C6.27577811,0.899385737 3.55284109,2.78301423 3.55284109,3.90786309 C4.82740735,4.86546469 5.70484769,3.20483255 6.41937726,5.54037401 C6.86948633,6.13239973 6.86948633,6.46985439 6.53227591,6.92028729 C3.63652473,7.05990669 3.3790366,5.99130027 1.50729593,4.75248645 C-0.134190932,5.00705751 2.84227287,8.69044418 2.9522005,9.05602007 C1.76379372,9.05602007 1.1700855,8.27010592 0.372862626,8.27010592 C0.0623913557,8.57746594 0.289178982,9.05602007 0.346123473,9.11275586 C0.686800082,12.5435449 4.97447269,12.798116 7.63749421,11.9253714 L7.63749421,11.7309896 C8.00391963,11.6160379 8.46145624,11.5879167 8.82491064,10.8266703 C8.88482615,10.8266703 8.93879962,10.8266703 9.0284253,10.8020026 L9.0284253,10.4058387 C9.39584106,10.2380981 10.5268082,9.16751824 10.8140065,8.60558717 C14.9016306,5.76633049 19.4928421,3.48752483 20.2336157,10.8020026 C20.8010799,12.262826 22.18904,14.8213638 24.0340415,14.8213638 C24.1712035,14.6812511 24.1712035,14.6812511 24.2043798,14.3738911 C22.1320955,12.3195618 21.1947397,12.4024454 20.8010799,9.05602007 C19.9469125,6.49797561 19.4363928,5.06181989 16.3465352,5.06181989 C14.2207726,5.42739577 10.2435712,7.70472136 9.28244725,9.16751824 L9.08190361,9.16751824 C9.08190361,10.1251198 7.55034438,10.8020026 7.01308548,10.8562716 C6.78976404,12.5435449 1.50729593,11.4749385 1.50729593,9.7329028 C1.79102804,9.8157864 2.07773118,9.90064342 2.38820245,9.9554058 C2.4149416,10.0402628 2.47485711,10.1251198 2.5318016,10.1818556 C2.78532838,10.1818556 3.06559431,10.1818556 3.35279261,10.1532411 C3.49292558,10.8020026 3.46965261,10.7151721 4.09356617,10.8020026 C4.15001549,10.4058387 4.2034938,10.0121416 4.29014846,9.61992456 C5.28147777,9.47833174 5.96233582,10.3229551 7.83754268,9.70280816 C8.12077963,8.9149206 2.98191067,9.39396808 2.98191067,7.48221837 C3.12550982,7.48221837 3.26613795,7.48221837 3.41320329,7.45360379 C3.43598109,7.48221837 6.98337531,8.3816041 7.18688997,8.35298953 C7.23987311,8.21337013 7.32355675,8.07029725 7.41021141,7.90255662 C7.32355675,7.734816 7.09676912,7.11466907 7.63749421,6.94692845 C7.63749421,6.75057325 7.66423336,6.5231367 7.69394353,6.29866028 C7.75039285,6.29866028 7.80733734,6.27201913 7.89102098,6.24192449 C7.69394353,5.93456447 7.49389505,5.59710981 7.32355675,5.25768173 C7.23987311,5.25768173 7.18688997,5.25768173 7.12697446,5.23153393 C6.67290404,4.07757713 6.89969167,3.48752483 5.25424345,3.23492719 C5.28147777,3.14859011 5.31168311,3.06521315 5.34139328,2.98084949 C9.05169827,2.27929901 9.4488242,8.7753012 14.584227,3.68536009 C17.6775508,1.57577512 19.1224553,0.112978241 23.2368186,1.57577512 C26.813923,1.15198338 28.7426082,8.35298953 26.7005292,10.6584363 L26.7005292,11.165605 C26.7837177,11.2504621 26.8971115,11.3067045 27.0144667,11.3634403 C28.5722699,10.2114569 28.2924991,8.40972532 28.3756876,6.29866028 C27.4110974,1.93987094 23.8379544,0 19.8067796,0" id="path202"></path>
                </g>
                <g id="g204" transform="translate(82.784102, 11.139755)" fill="#231F20">
                    <path d="M2.97101694,2.77555756e-17 C-2.28124584,0.673429254 -0.262439829,7.0303054 3.8479621,5.68196683 C3.96185109,5.59513639 4.58625981,5.06181989 4.97991956,4.8925992 L4.97991956,4.69624401 L5.18293905,4.69624401 C5.55035481,3.31830415 5.58056015,-0.310813502 2.97101694,2.77555756e-17" id="path206"></path>
                </g>
                <g id="g208" transform="translate(83.376969, 11.926015)" fill="#23723C">
                    <path d="M1.98067796,0 C0.0490217795,0.335974595 -0.435253981,2.07949033 0.332753897,3.40266781 C3.67960448,6.72245203 6.40551252,0.335974595 1.98067796,0" id="path210"></path>
                </g>
                <g id="g212" transform="translate(31.238147, 13.811025)" fill="#67C653">
                    <path d="M4.95169489,0 C4.90118761,0.111498177 4.8412721,0.222996354 4.78432761,0.335974595 L4.58774532,0.335974595 C4.58774532,0.956121534 3.33645202,1.18207802 3.24930219,1.21019924 C3.24930219,1.4909181 2.74224863,1.74203568 2.68579931,1.96848551 C6.37283133,1.06909978 5.23839803,2.44703963 7.73405226,3.82497949 C7.73405226,3.88319535 6.88335107,6.41361194 6.85710709,6.72245203 C5.32505269,7.05990669 4.41394083,6.15904089 3.19929007,7.08654784 C2.20152355,7.08654784 1.66773084,6.13091966 0.926957284,5.96120562 C1.35131754,8.57943936 5.04478676,7.56510197 4.8412721,8.66429638 C2.68579931,8.6924176 2.06188575,8.26862586 0.246594406,7.734816 C0.757114149,9.84440098 2.79869795,9.84440098 4.58774532,9.70280816 C4.58774532,9.67271352 4.61101829,9.64804578 4.64419464,9.59130999 C7.19332717,9.4220893 8.44511564,6.74909318 9.71968191,4.41503179 C11.221531,2.92411369 16.106378,4.24729117 18.4589282,4.52801003 C18.4287229,3.79685827 18.712455,0.169714039 17.6646764,0.366069236 C16.670376,-0.61817352 10.1702861,1.01236398 9.83307572,2.02472796 C8.86848556,2.02472796 8.75558691,3.34790543 7.95786887,3.15007017 C7.84447505,1.12534222 7.31068234,0.141592818 4.95169489,0" id="path214"></path>
                </g>
                <g id="g216" transform="translate(82.000249, 19.042312)" fill="#231F20">
                    <path d="M1.48550847,-2.0469737e-16 C-1.92125762,0.842649939 1.31517016,5.62375097 3.4973821,3.46088368 C3.66772041,2.10958497 3.46767193,-0.112978241 1.48550847,-2.0469737e-16" id="path218"></path>
                </g>
                <g id="g220" transform="translate(82.605693, 19.802128)" fill="#23723C">
                    <path d="M0.990338979,0 C0.733346014,0.195861842 0.479819235,0.364095817 0.226292457,0.53528992 C0.226292457,1.65915207 0.422874744,2.5314033 1.75785169,2.36218261 C1.75785169,2.30396675 1.78112465,2.24920437 1.81430101,2.16582742 C2.86207965,1.82689269 2.06832296,0 0.990338979,0" id="path222"></path>
                </g>
                <g id="g224" transform="translate(85.940362, 25.174564)" fill="#23723C">
                    <path d="M0.495169489,0 C0.408514829,0.448952836 0.124782711,2.2205898 0.0381280507,2.24920437 C-0.132210254,3.82497949 -0.35899788,6.10427851 -0.132210254,7.50885952 C0.124782711,7.50885952 4.09901303,6.16052095 4.54961727,5.93604453 C5.17699701,5.12003575 6.7352954,2.24920437 5.4840021,1.26496162 C3.89896456,0.842649939 1.88362474,0.0848570196 0.495169489,0" id="path226"></path>
                </g>
                <g id="g228" transform="translate(74.808209, 29.421805)" fill="#231F20">
                    <path d="M1.98067796,0 C-1.47956643,0.816008781 0.221835931,4.30402697 2.74819067,3.06718657 C2.74819067,2.41842506 4.05296227,0.561931077 1.98067796,0" id="path230"></path>
                </g>
                <g id="g232" transform="translate(75.923331, 30.377680)" fill="#23723C">
                    <path d="M0.495169489,0 C0.244613728,0.0848570196 0.0143599152,0.169714039 -0.212427711,0.224476418 C-0.212427711,1.26496162 -0.412476185,1.71539452 0.721957116,1.79877147 C0.752162455,1.68579323 0.778406437,1.5476539 0.808611776,1.40655443 C1.17602754,1.37941992 1.17602754,1.37941992 1.48946982,1.2368404 C1.48946982,0.900865801 1.3161605,0.420831615 1.12552025,0 L0.495169489,0 L0.495169489,0 Z" id="path234"></path>
                </g>
                <g id="g236" transform="translate(60.887361, 31.389946)" fill="#231F20">
                    <path d="M0.495169489,0 C0.355036524,0.0286145764 0.241642711,0.0286145764 0.128248898,0.0286145764 C0.071799576,0.224476418 0.0143599152,0.423791743 -0.0153502542,0.590052299 C0.438720168,0.759766338 2.84771973,1.43467566 3.47212846,1.43467566 C3.62166965,1.29357619 3.67514795,1.23832046 3.75883159,0.786407495 C2.7947366,0.0286145764 1.57661965,0.056735798 0.495169489,0" id="path238"></path>
                </g>
                <g id="g240" transform="translate(10.673609, 33.220242)" fill="#FFFFFF">
                    <path d="M8.41788132,0 C5.97223921,0.194381777 3.61968897,0.812555298 1.54393847,1.319724 C1.38053254,1.96799216 1.26713872,1.99611338 0.97994042,2.07949033 C0.893285759,3.20335249 0.0757609319,4.10569835 0.216389067,5.03172525 C2.20152355,5.03172525 4.89772142,4.27195891 7.27651565,4.07609707 C7.90389539,3.09185431 8.7248864,1.57429505 8.89522471,0.0266411573 C8.7248864,0.0266411573 8.5545481,0.0266411573 8.41788132,0" id="path242"></path>
                </g>
                <g id="g244" transform="translate(18.692532, 33.303373)" fill="#FFFFFF">
                    <path d="M1.98067796,2.77555756e-17 C1.27654694,1.40458102 0.475857879,2.7277585 0.222331101,4.04945591 C2.94823914,3.85458078 6.15198574,5.23301399 8.9878214,5.23301399 C9.18489886,4.80922225 9.86922309,2.41842506 9.75533411,1.60093621 C8.42431852,1.15346344 2.89178982,-0.28269228 1.98067796,2.77555756e-17" id="path246"></path>
                </g>
                <g id="g248" transform="translate(86.118771, 34.904112)" fill="#23723C">
                    <path d="M1.92554306e-16,-6.9388939e-17 C-0.0534783049,1.88856204 0.683829065,3.85310071 1.30823779,5.45897047 C4.20101795,5.45897047 5.44884506,3.23640726 6.21289158,0.649748225 C5.28197294,-0.279238797 0.82396203,-6.9388939e-17 1.92554306e-16,-6.9388939e-17" id="path250"></path>
                </g>
                <g id="g252" transform="translate(5.564252, 35.274868)" fill="#FFFFFF">
                    <path d="M4.95169489,0 C1.80538796,1.40310095 1.09432457,2.61280684 0.219855253,5.48067808 C1.01064093,5.48067808 2.51199482,3.79340479 3.8771771,3.54080715 C4.53426702,3.03363845 4.83830108,1.59896279 5.18541489,0.390736974 C5.15520955,0.279238797 5.15520955,0.138139334 5.15520955,0 L4.95169489,0 L4.95169489,0 Z" id="path254"></path>
                </g>
                <g id="g256" transform="translate(28.589188, 35.354594)" fill="#FFFFFF">
                    <path d="M0.990338979,-1.34441069e-16 C0.910121522,0.0300946407 0.850206013,0.0582158623 0.793261522,0.0582158623 C0.33968627,1.21217266 0.0861594912,2.42039848 -0.113888983,3.37602666 C-0.000990338979,3.5457407 7.94400412,6.30162041 8.05739793,6.27349919 C8.57187903,5.40075461 8.59812302,4.08103062 9.27551488,2.95371498 C8.88185513,2.47713427 1.59097957,-0.138139334 0.990338979,-1.34441069e-16" id="path258"></path>
                </g>
                <g id="g260" transform="translate(9.702136, 38.084178)" fill="#FFFFFF">
                    <path d="M7.42754234,0 C1.04728347,0.591532363 0.53329754,0.0848570196 -0.120326186,5.73968934 C2.14854041,5.45749041 4.33421854,5.0366588 6.86007811,4.92220049 C7.17352039,3.31781079 7.62412463,1.82837276 7.96480124,0.0281212216 C7.76821895,0.0281212216 7.59441446,0.0281212216 7.42754234,0" id="path262"></path>
                </g>
                <g id="g264" transform="translate(17.610835, 38.084178)" fill="#FFFFFF">
                    <path d="M0.990338979,0 C0.396135592,0.280718861 -0.0277294914,4.13381958 -0.0841788132,4.78208774 C2.72194668,4.86546469 5.41814455,5.82306629 8.1747531,6.30014035 C8.65160132,4.83734347 9.50576869,3.15155024 9.64590166,1.40655443 C9.24927089,0.62014694 1.93116101,0.0281212216 0.990338979,0" id="path266"></path>
                </g>
                <g id="g268" transform="translate(37.176764, 38.757262)" fill="#FFFFFF">
                    <path d="M1.48550847,-1.56992475e-16 C0.774445082,0.929480377 0.207476016,2.39227726 0.0935870335,3.34987885 C2.56349245,4.13924648 5.02894134,5.40272803 7.72513921,5.93801795 C7.83853302,5.59858987 8.83332852,3.09678786 8.18218064,2.56347136 C7.12845997,2.27929901 1.71229609,-0.0814035362 1.48550847,-1.56992475e-16" id="path270"></path>
                </g>
                <g id="g272" transform="translate(26.565480, 39.545199)" fill="#FFFFFF">
                    <path d="M1.48550847,0 C1.11512169,1.24029388 0.0371377117,4.24877124 0.0371377117,5.20489277 C2.56349245,6.07714399 4.83582523,7.42745599 7.35821861,8.35644301 C7.8419992,6.86552491 9.65729055,5.34599223 9.65729055,3.06866664 C8.09899217,2.02620802 3.38448346,0.114458305 1.48550847,0" id="path274"></path>
                </g>
                <g id="g276" transform="translate(4.671115, 39.742984)" fill="#FFFFFF">
                    <path d="M4.45652541,0 C4.2861871,0.365575881 3.4958966,0.592025718 3.37854143,0.62014694 C3.37854143,0.705003959 1.27308076,1.82343921 1.27308076,1.87968165 C0.246099236,2.19789548 -0.108442118,3.96805237 0.14557983,5.62720445 C1.30675228,5.20489277 2.55804558,4.78258109 4.00295015,4.44512643 C4.14605414,3.77021711 4.93733498,0.929480377 4.71648939,0.0300946407 C4.6303299,0.0300946407 4.54367524,0.0300946407 4.45652541,0" id="path278"></path>
                </g>
                <g id="g280" transform="translate(45.446689, 41.682905)" fill="#FFFFFF">
                    <path d="M0.990338979,0 C1.33101559,1.0143374 -0.201038813,3.0953078 0.362959236,3.54722076 C2.8888188,3.9394378 5.75188879,6.38647743 8.36489819,6.78066789 C8.56148047,6.16200101 9.32899318,3.74357596 9.32899318,2.87083138 C6.20546404,1.32317748 4.19359041,0.78788756 0.990338979,0" id="path282"></path>
                </g>
                <g id="g284" transform="translate(88.412793, 41.939005)" fill="#23723C">
                    <path d="M4.45652541,-1.52655666e-16 C2.84425355,0.251117575 1.33943347,0.646788097 0.0346618643,1.06712636 C0.859119064,3.06521315 1.70982025,5.06329995 2.5610166,7.05842662 C6.05146633,7.05842662 5.79100718,3.23295377 5.87766184,0.503715215 C5.67761337,-0.256051123 4.96654998,-1.52655666e-16 4.45652541,-1.52655666e-16" id="path286"></path>
                </g>
                <g id="g288" transform="translate(34.979944, 42.810072)" fill="#FFFFFF">
                    <path d="M1.98067796,0 C1.53007372,1.71539452 -0.235205508,4.49988881 -0.235205508,5.62325761 C0.645701014,6.27152577 5.38051167,9.5617087 6.17476353,9.45169059 C7.11211938,8.0140548 9.38148115,4.63950821 9.5250803,2.70111734 C8.56395632,2.22256322 2.97151211,0.0863370839 1.98067796,0" id="path290"></path>
                </g>
                <g id="g292" transform="translate(67.769474, 45.200475)" fill="#231F20">
                    <path d="M-8.32667268e-17,4.16333634e-17 C-0.797718048,0.393697102 1.58800855,1.88313514 1.89847982,2.36218261 C2.38275558,2.36218261 2.38275558,2.36218261 2.54913253,2.24920437 C2.63578719,1.51755926 0.510519744,-0.0848570196 -8.32667268e-17,4.16333634e-17" id="path294"></path>
                </g>
                <g id="g296" transform="translate(54.466151, 45.311776)" fill="#FFFFFF">
                    <path d="M0.990338979,1.14491749e-16 C0.336220083,1.29357619 0.0792271183,2.56149794 0.0792271183,3.51761947 C0.249565423,3.71348132 6.12227557,6.89364613 6.23566938,6.89364613 C7.2269987,5.43084925 1.92472381,-0.307360019 0.990338979,1.14491749e-16" id="path298"></path>
                </g>
                <g id="g300" transform="translate(41.779364, 45.931824)" fill="#FFFFFF">
                    <path d="M3.46618643,0 C2.75561821,1.46131681 0.796727709,6.21528333 -0.0539734744,6.63956843 C-0.0841788132,6.72245203 -0.110917966,6.80730905 -0.110917966,6.89019265 C2.78235736,9.45169059 18.6990854,14.3738911 18.6990854,7.08802791 C17.7047851,6.10427851 13.5067382,3.74012247 12.3460609,3.88319535 C11.461193,5.42739577 10.5307695,10.0417429 9.08239878,10.2380981 C8.99178276,10.1547211 8.93533344,10.0703575 8.87888412,9.95737922 C9.59291852,8.7753012 11.5478477,5.20439942 11.6018211,3.45940361 C10.8110355,2.44703963 4.88088566,0.28269228 3.46618643,0" id="path302"></path>
                </g>
                <g id="g304" transform="translate(72.833325, 48.857516)" fill="#231F20">
                    <path d="M0.495169489,0 C-0.102004915,0.337454659 0.0683333895,0.646788097 0.151521864,0.899385737 C3.21810651,3.43128239 8.15346081,9.02937891 5.82764972,13.1636918 C3.98561922,14.7942293 3.78557075,16.4533814 3.72516007,18.5910876 C3.98561922,18.8175374 4.0688077,19.0701351 4.51941193,18.9305157 C2.51050931,16.9319355 9.09081666,11.785752 7.07547684,9.78914525 C6.90513853,8.27010592 4.43622346,3.038572 2.67738143,2.47516086 C2.67738143,2.39030384 0.89229542,0.111498177 0.495169489,0" id="path306"></path>
                </g>
                <g id="g308" transform="translate(91.092699, 51.304309)" fill="#23723C">
                    <path d="M2.97101694,-1.45716772e-16 C2.17329889,0.16774062 1.37904703,0.335974595 0.588261353,0.507168698 C0.534783049,3.34642537 0.645205845,5.82306629 0.137657118,8.3248683 C3.99502744,7.98889371 4.33570405,3.57238185 4.33570405,0.139619398 C4.07871108,-0.112978241 3.08441075,-1.45716772e-16 2.97101694,-1.45716772e-16" id="path310"></path>
                </g>
                <g id="g312" transform="translate(12.406702, 61.766884)" fill="#231F20">
                    <path d="M0.495169489,0 C-0.806135929,0.98572282 1.88659575,1.01236398 2.08317804,2.44703963 C2.14012253,2.47516086 2.22677719,2.50328208 2.30996567,2.50328208 C2.82048541,4.21916995 2.42385465,5.71008805 1.99998957,7.14624377 C2.5674538,7.59371654 2.14012253,7.48369843 2.79424143,7.31250433 C2.93437439,5.20489277 4.239146,0.4504329 0.495169489,0" id="path314"></path>
                </g>
                <g id="g316" transform="translate(15.953651, 62.441892)" fill="#231F20">
                    <path d="M0.495169489,0 C0.355036524,0.141099463 0.241642711,0.280718861 0.128248898,0.393697102 C0.89229542,1.71687458 1.28942135,1.12534222 1.28942135,2.75587972 C1.37260982,2.86885796 1.45926449,2.9818362 1.57315347,3.06669322 C2.53378228,2.95371498 1.9702794,0 0.495169489,0" id="path318"></path>
                </g>
                <g id="g320" transform="translate(8.096202, 63.173241)" fill="#231F20">
                    <path d="M1.48550847,0 C-0.867041776,0.648268161 -0.0995290674,2.64487489 0.0406038981,4.27541239 C4.69222608,11.9821072 8.06532064,0 1.48550847,0" id="path322"></path>
                </g>
                <g id="g324" transform="translate(8.892633, 64.159013)" fill="#7A7761">
                    <path d="M0.495169489,-9.02056208e-17 C-0.782367793,0.842649939 0.0381280507,2.89599247 0.548647794,3.76873705 C0.605592286,3.76873705 0.658575421,3.74012247 0.745725251,3.71200125 C-0.0752657624,2.24920437 0.802174573,1.48943804 0.802174573,-0.0300946407 C0.689275929,-9.02056208e-17 0.575386947,-9.02056208e-17 0.495169489,-9.02056208e-17" id="path326"></path>
                </g>
                <g id="g328" transform="translate(1.462219, 64.694254)" fill="#231F20">
                    <path d="M1.48550847,0 C-1.81083482,2.98084949 2.27678931,9.05454 4.37531761,5.76485043 C4.74570439,3.76873705 4.14852998,0 1.48550847,0" id="path330"></path>
                </g>
                <g id="g332" transform="translate(2.395960, 66.238651)" fill="#7A7761">
                    <path d="M0.495169489,7.2858386e-17 C-0.35899788,0.844130003 0.718986099,2.75587972 0.945773725,3.54426063 C1.06263372,3.43276245 0.635302455,0.872744579 0.691751777,0.0848570196 C0.575386947,-0.0266411573 0.575386947,-0.0266411573 0.495169489,7.2858386e-17" id="path334"></path>
                </g>
                <g id="g336" transform="translate(53.017880, 68.715292)" fill="#231F20">
                    <path d="M0.990338979,0 C0.619952201,0.392217038 0.249565423,0.786407495 -0.0876449996,1.18059795 C0.249565423,1.51805261 1.81430101,0.842649939 1.33101559,0 L0.990338979,0 L0.990338979,0 Z" id="path338"></path>
                </g>
                <g id="g340" transform="translate(58.765956, 69.754298)" fill="#231F20">
                    <path d="M1.48550847,0 C-0.957162623,0.78788756 0.294625846,3.63059772 2.92694685,3.40266781 C3.15373448,3.32126428 3.3805221,3.20828604 3.64147643,3.0953078 C3.89450803,1.29505626 3.78111422,0 1.48550847,0" id="path342"></path>
                </g>
                <g id="g344" transform="translate(56.847669, 70.261368)" fill="#231F20">
                    <path d="M4.4408921e-16,0 C-0.994300335,0.984242756 3.99750329,5.39927455 4.79522134,5.68344689 C7.48448683,8.01701493 11.3988016,8.99977762 15.0061114,9.25385533 C15.0892999,9.31059112 18.4094113,9.25385533 18.5465732,9.33723228 C18.5465732,9.28197655 18.5792544,9.2257341 18.6064887,9.1428505 C19.5478059,9.02937891 20.9352708,9.28197655 20.3648356,7.96077249 C20.3118525,8.01701493 20.2514418,8.07375073 20.2247026,8.10187195 C20.1677581,8.07375073 20.1113088,8.01701493 20.0543643,7.96077249 C18.6629381,9.33723228 9.18687954,8.43932661 7.88507895,6.80681569 C5.41269769,5.71156811 1.21811694,2.75785314 0.337705592,0.0848570196 C0.223816609,0.0562424432 0.113393813,0.0266411573 4.4408921e-16,0" id="path346"></path>
                </g>
                <g id="g348" transform="translate(59.881077, 70.656890)" fill="#FFFFFF">
                    <path d="M4.16333634e-17,0 C-0.0302053389,0.307853373 -0.0599155082,0.616693456 -0.0599155082,0.927506958 C0.166872118,1.09376751 0.65015754,1.2368404 0.680858048,1.68579323 C0.934384827,1.71588787 1.19088262,1.71588787 1.44490457,1.71588787 C1.55829838,1.57429505 1.55829838,1.57429505 1.58503754,1.12386215 C1.16117245,0.813048653 0.934384827,0.588572235 0.423369914,0.505195279 C0.423369914,0.279238797 0.196582287,0.056735798 4.16333634e-17,0" id="path350"></path>
                </g>
                <g id="g352" transform="translate(80.105681, 26.464588)" fill="#23723C">
                    <path d="M0,2.46677382 C0,3.74012247 0.867536946,4.77222064 1.92918033,4.77222064 C2.99973677,4.77222064 3.8643027,3.74012247 3.8643027,2.46677382 C3.8643027,1.19342518 2.99973677,0.159846944 1.92918033,0.159846944 C0.867536946,0.159846944 0,1.19342518 0,2.46677382" id="path354"></path>
                </g>
                <g id="g356" transform="translate(79.676715, 25.932653)" fill="#231F20">
                    <path d="M1.98067796,0 C-2.18716364,1.88510856 1.58305686,7.65143905 3.56868651,5.0366588 C3.54194736,4.97844293 3.51223719,4.89555933 3.51223719,4.80922225 C-1.70982025,4.80922225 2.14755008,-1.46279688 3.79894032,1.80025154 C4.05296227,3.15155024 3.36863804,3.57386192 3.48203185,4.36174948 C3.68554651,4.44512643 3.68554651,4.44512643 4.19309524,4.44512643 C5.8944976,2.75785314 4.02622312,0.169714039 1.98067796,0" id="path358"></path>
                </g>
                <g id="g360" transform="translate(43.705375, 91.230869)" stroke="#231F20" stroke-width="0.625" fill="#231F20">
                    <path d="M0.495169489,1.48006429 C-1.6553516,1.13471596 1.82321406,-0.862384129 1.24287542,0.959081663 C1.10274245,0.984242756 1.00172788,1.11004822 0.918044233,1.14260964" id="path362"></path>
                </g>
            </g>
        </g>
    </g>
</svg>
