<?xml version="1.0" encoding="UTF-8" standalone="no"?>
<svg width="1028px" height="196px" viewBox="0 0 1028 196" version="1.1" xmlns="http://www.w3.org/2000/svg" xmlns:xlink="http://www.w3.org/1999/xlink" xmlns:sketch="http://www.bohemiancoding.com/sketch/ns">
    <!-- Generator: Sketch 3.2 (9961) - http://www.bohemiancoding.com/sketch -->
    <title>Logo</title>
    <desc>Created with Sketch.</desc>
    <defs>
        <path id="path-1" d="M717.754143,168.206 L865.422143,168.206 L865.422143,29.374 L717.754143,29.374 L717.754143,168.206 L717.754143,168.206 Z"></path>
    </defs>
    <g id="Page-1" stroke="none" stroke-width="1" fill="none" fill-rule="evenodd" sketch:type="MSPage">
        <path d="M865.41945,47.5423 L821.395379,168.2063 L1055.0635,121.2473 L1055.0635,121.2243 L1050.54986,65.8983 L865.41945,47.5423 Z" id="Fill-115" fill-opacity="0.85" fill="#855995" sketch:type="MSShapeGroup"></path>
        <path d="M-338.381529,84.7357 L88.8568286,129.9857 L110.900971,22.3597 L-854.610529,-10.2063 L-338.381529,84.7357 Z" id="Fill-118" fill-opacity="0.85" fill="#855995" sketch:type="MSShapeGroup"></path>
        <path d="M153.195193,45.5794 L203.965907,195.0994 L717.752693,157.2364 L828.495407,29.3764 L828.495407,29.3744 L153.195193,45.5794 Z" id="Fill-121" fill-opacity="0.85" fill="#723A83" sketch:type="MSShapeGroup"></path>
        <path d="M110.900143,22.3594 L88.856,129.9854 L203.965286,195.0994 L153.194571,45.5794 L110.900143,22.3594 Z" id="Fill-124" fill-opacity="0.85" fill="#7D4D8D" sketch:type="MSShapeGroup"></path>
        <mask id="mask-2" sketch:name="Clip 128" fill="white">
            <use xlink:href="#path-1"></use>
        </mask>
        <g id="Clip-128"></g>
        <path d="M828.497271,29.374 L717.752486,157.236 L821.394343,168.206 L865.420486,47.542 L828.497271,29.374 Z" id="Fill-127" fill-opacity="0.85" fill="#7B4A8C" sketch:type="MSShapeGroup" mask="url(#mask-2)"></path>
    </g>
</svg>
